{
  "accessors": [
    {
      "bufferView": 2,
      "componentType": 5126,
      "count": 2318,
      "max": [
        2.654560089111328,
        4.349880218505859,
        3.087160110473633
      ],
      "min": [
        -2.6570301055908203,
        -4.073349952697754,
        -3.335700035095215
      ],
      "type": "VEC3"
    },
    {
      "bufferView": 2,
      "byteOffset": 27816,
      "componentType": 5126,
      "count": 2318,
      "max": [
        1.0,
        1.0,
        1.0
      ],
      "min": [
        -1.0,
        -1.0,
        -1.0
      ],
      "type": "VEC3"
    },
    {
      "bufferView": 1,
      "componentType": 5126,
      "count": 2318,
      "max": [
        0.9898899793624878,
        0.9917899966239929
      ],
      "min": [
        0.010099999606609344,
        0.009909999556839466
      ],
      "type": "VEC2"
    },
    {
      "bufferView": 0,
      "componentType": 5125,
      "count": 6645,
      "type": "SCALAR"
    },
    {
      "bufferView": 2,
      "byteOffset": 55632,
      "componentType": 5126,
      "count": 4,
      "max": [
        1.0,
        1.0,
        0.0
      ],
      "min": [
        -1.0,
        -1.0,
        0.0
      ],
      "type": "VEC3"
    },
    {
      "bufferView": 2,
      "byteOffset": 55680,
      "componentType": 5126,
      "count": 4,
      "max": [
        0.0,
        0.0,
        1.0
      ],
      "min": [
        0.0,
        0.0,
        1.0
      ],
      "type": "VEC3"
    },
    {
      "bufferView": 0,
      "byteOffset": 26580,
      "componentType": 5125,
      "count": 6,
      "type": "SCALAR"
    },
    {
      "bufferView": 2,
      "byteOffset": 55728,
      "componentType": 5126,
      "count": 4,
      "max": [
        1.0,
        1.0,
        0.0
      ],
      "min": [
        -1.0,
        -1.0,
        0.0
      ],
      "type": "VEC3"
    },
    {
      "bufferView": 2,
      "byteOffset": 55776,
      "componentType": 5126,
      "count": 4,
      "max": [
        0.0,
        0.0,
        1.0
      ],
      "min": [
        0.0,
        0.0,
        1.0
      ],
      "type": "VEC3"
    },
    {
      "bufferView": 1,
      "byteOffset": 18544,
      "componentType": 5126,
      "count": 4,
      "max": [
        0.9919000267982483,
        0.9939299821853638
      ],
      "min": [
        0.006089999806135893,
        0.008129999972879887
      ],
      "type": "VEC2"
    },
    {
      "bufferView": 0,
      "byteOffset": 26604,
      "componentType": 5125,
      "count": 6,
      "type": "SCALAR"
    },
    {
      "bufferView": 2,
      "byteOffset": 55824,
      "componentType": 5126,
      "count": 102,
      "max": [
        1.7832599878311157,
        1.7832599878311157,
        6.739270210266113
      ],
      "min": [
        -1.7832599878311157,
        -1.7832599878311157,
        -0.7400000095367432
      ],
      "type": "VEC3"
    },
    {
      "bufferView": 2,
      "byteOffset": 57048,
      "componentType": 5126,
      "count": 102,
      "max": [
        0.9671853184700012,
        0.9671853184700012,
        1.0
      ],
      "min": [
        -0.9671853184700012,
        -0.9671853184700012,
        -1.0
      ],
      "type": "VEC3"
    },
    {
      "bufferView": 1,
      "byteOffset": 18576,
      "componentType": 5126,
      "count": 102,
      "max": [
        0.9539200067520142,
        0.9850299954414368
      ],
      "min": [
        0.04194999858736992,
        0.02402999997138977
      ],
      "type": "VEC2"
    },
    {
      "bufferView": 0,
      "byteOffset": 26628,
      "componentType": 5125,
      "count": 192,
      "type": "SCALAR"
    },
    {
      "bufferView": 2,
      "byteOffset": 58272,
      "componentType": 5126,
      "count": 102,
      "max": [
        1.7832599878311157,
        1.7832599878311157,
        6.739270210266113
      ],
      "min": [
        -1.7832599878311157,
        -1.7832599878311157,
        -0.7400000095367432
      ],
      "type": "VEC3"
    },
    {
      "bufferView": 2,
      "byteOffset": 59496,
      "componentType": 5126,
      "count": 102,
      "max": [
        0.9671853184700012,
        0.9671853184700012,
        1.0
      ],
      "min": [
        -0.9671853184700012,
        -0.9671853184700012,
        -1.0
      ],
      "type": "VEC3"
    },
    {
      "bufferView": 1,
      "byteOffset": 19392,
      "componentType": 5126,
      "count": 102,
      "max": [
        0.9539200067520142,
        0.9850299954414368
      ],
      "min": [
        0.04194999858736992,
        0.02402999997138977
      ],
      "type": "VEC2"
    },
    {
      "bufferView": 0,
      "byteOffset": 27396,
      "componentType": 5125,
      "count": 192,
      "type": "SCALAR"
    }
  ],
  "asset": {
    "extras": {
      "author": "mosak (https://sketchfab.com/mosak)",
      "license": "CC-BY-4.0 (http://creativecommons.org/licenses/by/4.0/)",
      "source": "https://sketchfab.com/3d-models/camper-from-pocket-camp-431170250cf14a2288e44e750f5d8371",
      "title": "Camper from Pocket Camp"
    },
    "generator": "Sketchfab-12.68.0",
    "version": "2.0"
  },
  "bufferViews": [
    {
      "buffer": 0,
      "byteLength": 28164,
      "name": "floatBufferViews",
      "target": 34963
    },
    {
      "buffer": 0,
      "byteLength": 20208,
      "byteOffset": 28164,
      "byteStride": 8,
      "name": "floatBufferViews",
      "target": 34962
    },
    {
      "buffer": 0,
      "byteLength": 60720,
      "byteOffset": 48372,
      "byteStride": 12,
      "name": "floatBufferViews",
      "target": 34962
    }
  ],
  "buffers": [
    {
      "byteLength": 109092,
      "uri": "scene.bin"
    }
  ],
  "extensionsRequired": [
    "KHR_materials_pbrSpecularGlossiness"
  ],
  "extensionsUsed": [
    "KHR_materials_pbrSpecularGlossiness"
  ],
  "images": [
    {
      "uri": "textures/light-cone_diffuse.png"
    },
    {
      "uri": "textures/ground_diffuse.png"
    },
    {
      "uri": "textures/camper_diffuse.png"
    },
    {
      "uri": "textures/camper_specularGlossiness.png"
    },
    {
      "uri": "textures/camper_emissive.png"
    }
  ],
  "materials": [
    {
      "doubleSided": true,
      "extensions": {
        "KHR_materials_pbrSpecularGlossiness": {
          "diffuseFactor": [
            0.109868690936828,
            0.109868690936828,
            0.109868690936828,
            1.0
          ],
          "glossinessFactor": 0.7299923779999999,
          "specularFactor": [
            0.0,
            0.0,
            0.0
          ]
        }
      },
      "name": "Plane_0"
    },
    {
      "alphaMode": "BLEND",
      "doubleSided": true,
      "emissiveFactor": [
        1.0,
        1.0,
        1.0
      ],
      "extensions": {
        "KHR_materials_pbrSpecularGlossiness": {
          "diffuseFactor": [
            1.0,
            1.0,
            1.0,
            0.0078125
          ],
          "diffuseTexture": {
            "index": 0
          },
          "glossinessFactor": 1.0,
          "specularFactor": [
            0.0,
            0.0,
            0.0
          ]
        }
      },
      "name": "light-cone"
    },
    {
      "alphaMode": "BLEND",
      "doubleSided": true,
      "extensions": {
        "KHR_materials_pbrSpecularGlossiness": {
          "diffuseFactor": [
            1.0,
            1.0,
            1.0,
            1.0
          ],
          "diffuseTexture": {
            "index": 1
          },
          "glossinessFactor": 0.0,
          "specularFactor": [
            0.0,
            0.0,
            0.0
          ]
        }
      },
      "name": "ground"
    },
    {
      "doubleSided": true,
      "emissiveFactor": [
        0.8708079268292684,
        0.8708079268292684,
        0.8708079268292684
      ],
      "emissiveTexture": {
        "index": 4
      },
      "extensions": {
        "KHR_materials_pbrSpecularGlossiness": {
          "diffuseFactor": [
            1.0,
            1.0,
            1.0,
            1.0
          ],
          "diffuseTexture": {
            "index": 2
          },
          "glossinessFactor": 0.6724466463,
          "specularFactor": [
            0.1663490854,
            0.1663490854,
            0.1663490854
          ],
          "specularGlossinessTexture": {
            "index": 3
          }
        }
      },
      "name": "camper"
    }
  ],
  "meshes": [
    {
      "name": "Cube.003_0",
      "primitives": [
        {
          "attributes": {
            "NORMAL": 1,
            "POSITION": 0,
            "TEXCOORD_0": 2
          },
          "indices": 3,
          "material": 3,
          "mode": 4
        }
      ]
    },
    {
      "name": "Plane_0",
      "primitives": [
        {
          "attributes": {
            "NORMAL": 5,
            "POSITION": 4
          },
          "indices": 6,
          "material": 0,
          "mode": 4
        }
      ]
    },
    {
      "name": "ground_0",
      "primitives": [
        {
          "attributes": {
            "NORMAL": 8,
            "POSITION": 7,
            "TEXCOORD_0": 9
          },
          "indices": 10,
          "material": 2,
          "mode": 4
        }
      ]
    },
    {
      "name": "liht-cone_0",
      "primitives": [
        {
          "attributes": {
            "NORMAL": 12,
            "POSITION": 11,
            "TEXCOORD_0": 13
          },
          "indices": 14,
          "material": 1,
          "mode": 4
        }
      ]
    },
    {
      "name": "liht-cone.001_0",
      "primitives": [
        {
          "attributes": {
            "NORMAL": 16,
            "POSITION": 15,
            "TEXCOORD_0": 17
          },
          "indices": 18,
          "material": 1,
          "mode": 4
        }
      ]
    }
  ],
  "nodes": [
    {
      "children": [
        1
      ],
      "matrix": [
        0.34090784192085266,
        0.0,
        0.0,
        0.0,
        0.0,
        7.569674707516076e-17,
        -0.34090784192085266,
        0.0,
        0.0,
        0.34090784192085266,
        7.569674707516076e-17,
        0.0,
        0.0,
        0.0,
        0.0,
        1.0
      ],
      "name": "Sketchfab_model"
    },
    {
      "children": [
        2,
        4,
        6,
        8,
        10
      ],
      "name": "Root"
    },
    {
      "children": [
        3
      ],
      "matrix": [
        1.0,
        0.0,
        0.0,
        0.0,
        0.0,
        1.0,
        0.0,
        0.0,
        0.0,
        0.0,
        1.0,
        0.0,
        0.0,
        -0.0,
        2.6668399999999997,
        1.0
      ],
      "name": "Cube.003"
    },
    {
      "mesh": 0,
      "name": "Cube.003_0"
    },
    {
      "children": [
        5
      ],
      "matrix": [
        1.0,
        0.0,
        -0.0,
        0.0,
        -0.0,
        -0.13708,
        -0.024800000000000003,
        0.0,
        0.0,
        -0.17803000000000002,
        0.98402,
        0.0,
        -0.025070000000000005,
        -3.09536,
        2.30549,
        1.0
      ],
      "name": "Plane"
    },
    {
      "mesh": 1,
      "name": "Plane_0"
    },
    {
      "children": [
        7
      ],
      "matrix": [
        8.747559999999998,
        0.0,
        0.0,
        0.0,
        0.0,
        8.747559999999998,
        0.0,
        0.0,
        0.0,
        0.0,
        8.747559999999998,
        0.0,
        -0.0,
        -0.0,
        -0.6679100000000001,
        1.0
      ],
      "name": "ground"
    },
    {
      "mesh": 2,
      "name": "ground_0"
    },
    {
      "children": [
        9
      ],
      "matrix": [
        0.6566400000000002,
        0.0,
        0.0,
        0.0,
        0.0,
        -0.0,
        0.6566400000000002,
        0.0,
        0.0,
        -0.6566400000000002,
        -0.0,
        0.0,
        -1.20054,
        -4.480300000000001,
        1.23426,
        1.0
      ],
      "name": "liht-cone"
    },
    {
      "mesh": 3,
      "name": "liht-cone_0"
    },
    {
      "children": [
        11
      ],
      "matrix": [
        0.6566400000000002,
        0.0,
        0.0,
        0.0,
        0.0,
        -0.0,
        0.6566400000000002,
        0.0,
        0.0,
        -0.6566400000000002,
        -0.0,
        0.0,
        1.2245199999999998,
        -4.480300000000001,
        1.23426,
        1.0
      ],
      "name": "liht-cone.001"
    },
    {
      "mesh": 4,
      "name": "liht-cone.001_0"
    }
  ],
  "samplers": [
    {
      "magFilter": 9729,
      "minFilter": 9987,
      "wrapS": 10497,
      "wrapT": 10497
    }
  ],
  "scene": 0,
  "scenes": [
    {
      "name": "Sketchfab_Scene",
      "nodes": [
        0
      ]
    }
  ],
  "textures": [
    {
      "sampler": 0,
      "source": 0
    },
    {
      "sampler": 0,
      "source": 1
    },
    {
      "sampler": 0,
      "source": 2
    },
    {
      "sampler": 0,
      "source": 3
    },
    {
      "sampler": 0,
      "source": 4
    }
  ]
}
